<svg xmlns="http://www.w3.org/2000/svg" viewBox="0 0 710.39 421.48"><defs><style>.cls-1{fill:black;}.cls-2{fill:#f54c00;}</style></defs><g id="Livello_2" data-name="Livello 2"><g id="Layer_1" data-name="Layer 1"><path class="cls-1" d="M357,265.33v39.21h-7.88V265.33h-11V258H368v7.32Z"/><path class="cls-1" d="M398,258v7.32h-19.2v12.26H398V285h-19.2v12.26H398v7.31H370.9V258Z"/><path class="cls-1" d="M440.27,292l5.88,5q-9.22,8-18.88,8a24.55,24.55,0,0,1-17.64-7,23,23,0,0,1,0-33.57,24.49,24.49,0,0,1,17.64-7q9.64,0,18.88,8.07l-5.88,5q-6.63-5.68-13-5.68a16.68,16.68,0,0,0-11.95,4.78,16,16,0,0,0,0,23.21,16.71,16.71,0,0,0,11.95,4.77Q433.63,297.66,440.27,292Z"/><path class="cls-1" d="M480.21,305.4l-22.31-30v29.18H450V258h4.71l21.75,29.32V258h7.95V305.4Z"/><path class="cls-1" d="M530.82,264.41a23.06,23.06,0,0,1,0,33.63,25.74,25.74,0,0,1-35.29,0,23,23,0,0,1,0-33.63,25.77,25.77,0,0,1,35.29,0Zm-17.65.38a16.71,16.71,0,0,0-12,4.81,16,16,0,0,0,0,23.26,17.34,17.34,0,0,0,23.95,0,16,16,0,0,0,0-23.26A16.7,16.7,0,0,0,513.17,264.79Z"/><path class="cls-1" d="M542,304.54V258H550v39.22h16.53v7.31Z"/><path class="cls-1" d="M610.94,264.41a23,23,0,0,1,0,33.63,25.73,25.73,0,0,1-35.28,0,23,23,0,0,1,0-33.63,25.75,25.75,0,0,1,35.28,0Zm-17.65.38a16.7,16.7,0,0,0-12,4.81,16,16,0,0,0,0,23.26,17.33,17.33,0,0,0,23.94,0,16,16,0,0,0,0-23.26A16.68,16.68,0,0,0,593.29,264.79Z"/><path class="cls-1" d="M663.21,297.89A25.05,25.05,0,0,1,645.75,305a24.55,24.55,0,0,1-17.64-7,23,23,0,0,1,0-33.57,24.49,24.49,0,0,1,17.64-7q9.64,0,18.88,8.07l-5.88,5q-6.63-5.68-13-5.68a16.66,16.66,0,0,0-12,4.78,16,16,0,0,0,0,23.21,16.69,16.69,0,0,0,12,4.77c4,0,7.14-.92,9.54-2.76v-14h7.92Z"/><path class="cls-1" d="M677.25,258v46.53h-7.92V258Z"/><path class="cls-1" d="M710.39,258v7.32H691.2v12.26h19.19V285H691.2v12.26h19.19v7.31H683.28V258Z"/><path class="cls-1" d="M10.75,316.06q11.9.06,18.57,6.48a22.54,22.54,0,0,1,7.23,16.78,22.37,22.37,0,0,1-7.26,16.78q-6.64,6.4-18.54,6.48H0V316.06Zm-2.83,7.41V355.2h2.8q8.19,0,12.73-4.25a15.49,15.49,0,0,0,5-11.63,15.68,15.68,0,0,0-5-11.67q-4.53-4.18-12.73-4.18Z"/><path class="cls-1" d="M72.14,316.06v7.31H52.94v12.26h19.2V343H52.94v12.26h19.2v7.31H45V316.06Z"/><path class="cls-1" d="M82.34,362.58V316.06h7.92v39.21h16.53v7.31Z"/><path class="cls-1" d="M114.93,362.58V316.06h7.92v39.21h16.52v7.31Z"/><path class="cls-1" d="M140,325.46a4.74,4.74,0,0,1-1.86-1.13,4.48,4.48,0,0,1-1.49-3.36,4.55,4.55,0,0,1,1.5-3.42,5.13,5.13,0,0,1,3.65-1.43,5.22,5.22,0,0,1,3.7,1.43,4.39,4.39,0,0,1,1.42,3.36,1.84,1.84,0,0,1,0,.33q-.11,2.24-4,14h-5.91Z"/><path class="cls-1" d="M168.36,316.06v46.52h-7.92V316.06Z"/><path class="cls-1" d="M209,363.44l-22.31-30v29.18h-7.92V316.06h4.71l21.75,29.31V316.06h7.95v47.38Z"/><path class="cls-1" d="M247.77,316.06v7.31H231.24v12.26h16.53V343H231.24v19.57h-7.92V316.06Z"/><path class="cls-1" d="M296.76,322.45a23.06,23.06,0,0,1,0,33.63,25.74,25.74,0,0,1-35.29,0,23,23,0,0,1,0-33.63,25.77,25.77,0,0,1,35.29,0Zm-17.65.39a16.7,16.7,0,0,0-12,4.8,16,16,0,0,0,0,23.26,17.34,17.34,0,0,0,23.95,0,16,16,0,0,0,0-23.26A16.69,16.69,0,0,0,279.11,322.84Z"/><path class="cls-1" d="M323.47,347l-2.63.83h-.41v14.72h-7.92V316.06h14.28A17.74,17.74,0,0,1,337,320.81a15.5,15.5,0,0,1-.07,22.63q-3.36,3.22-4.22,3.45l10.54,15.69h-9.4Zm-3-23.63v17.41h4.63a8.73,8.73,0,0,0,6.26-2.52,8.31,8.31,0,0,0,2.63-6.22,8.2,8.2,0,0,0-2.63-6.14,8.7,8.7,0,0,0-6.26-2.53Z"/><path class="cls-1" d="M351.28,362.58V314.66l21.92,36.49,21.93-36.56v48h-8V343l-11.79,19.57H371l-11.76-19.51v19.51Z"/><path class="cls-1" d="M431.16,362.58l-3.67-9.8H416.42l-3.69,9.8h-8.41L422,316l17.54,46.56Zm-6.47-17.08-2.77-7.25-2.73,7.25Z"/><path class="cls-1" d="M471.93,323.37H450.24v-7.31h35.11L461.8,355.27h21.68v7.31h-35.1Z"/><path class="cls-1" d="M502.88,316.06v46.52H495V316.06Z"/><path class="cls-1" d="M554.3,322.45a23.06,23.06,0,0,1,0,33.63,25.74,25.74,0,0,1-35.29,0,23,23,0,0,1,0-33.63,25.77,25.77,0,0,1,35.29,0Zm-17.66.39a16.69,16.69,0,0,0-12,4.8,16,16,0,0,0,0,23.26,17.34,17.34,0,0,0,24,0,16,16,0,0,0,0-23.26A16.7,16.7,0,0,0,536.64,322.84Z"/><path class="cls-1" d="M600.17,363.44l-22.31-30v29.18h-7.92V316.06h4.7l21.76,29.31V316.06h8v47.38Z"/><path class="cls-1" d="M641.56,316.06v7.31H622.37v12.26h19.19V343H622.37v12.26h19.19v7.31H614.45V316.06Z"/><path class="cls-1" d="M710.39,316.06v7.31H691.2v12.26h19.19V343H691.2v12.26h19.19v7.31H683.28V316.06Z"/><path class="cls-1" d="M11.29,374.09q11.9.07,18.57,6.48a22.57,22.57,0,0,1,7.23,16.79,22.38,22.38,0,0,1-7.26,16.78q-6.64,6.41-18.54,6.48H.54V374.09Zm-2.84,7.42v31.73h2.8q8.2,0,12.73-4.25a15.49,15.49,0,0,0,5-11.63,15.69,15.69,0,0,0-5-11.67q-4.53-4.19-12.73-4.18Z"/><path class="cls-1" d="M69.49,374.09v7.32H50.29v12.26h19.2v7.38H50.29v12.26h19.2v7.31H42.38V374.09Z"/><path class="cls-1" d="M76.51,420.62V374.09h7.92v39.22H101v7.31Z"/><path class="cls-1" d="M105.91,420.62V374.09h7.91v39.22h16.53v7.31Z"/><path class="cls-1" d="M161.76,420.62l-3.67-9.81H147l-3.7,9.81h-8.41l17.67-46.56,17.54,46.56Zm-6.47-17.08-2.77-7.25-2.73,7.25Z"/><path class="cls-1" d="M229.92,408.09l5.88,5q-9.24,8-18.89,8a24.54,24.54,0,0,1-17.63-7,23,23,0,0,1,0-33.57,24.49,24.49,0,0,1,17.63-7q9.66,0,18.89,8.08l-5.88,5q-6.64-5.69-13-5.69A16.66,16.66,0,0,0,205,385.76,16,16,0,0,0,205,409a16.68,16.68,0,0,0,11.94,4.77Q223.29,413.74,229.92,408.09Z"/><path class="cls-1" d="M281.94,380.49a23.06,23.06,0,0,1,0,33.63,25.74,25.74,0,0,1-35.29,0,23,23,0,0,1,0-33.63,25.77,25.77,0,0,1,35.29,0Zm-17.66.38a16.66,16.66,0,0,0-12,4.81,16,16,0,0,0,0,23.26,17.34,17.34,0,0,0,23.95,0,16,16,0,0,0,0-23.26A16.66,16.66,0,0,0,264.28,380.87Z"/><path class="cls-1" d="M293.88,420.62V372.7l21.92,36.49,21.93-36.56v48h-8V401.05L318,420.62h-4.43l-11.76-19.51v19.51Z"/><path class="cls-1" d="M369.91,374.09h7.92v32.5a16.09,16.09,0,0,1-4.84,9.64A16.75,16.75,0,0,1,361,421a16.56,16.56,0,0,1-12-4.73,15.16,15.16,0,0,1-4.91-11.32V374.09H352v30.84a8.21,8.21,0,0,0,2.67,6.17,9,9,0,0,0,12.57,0,8.25,8.25,0,0,0,2.64-6.17Z"/><path class="cls-1" d="M415,421.48l-22.3-30v29.18h-7.92V374.09h4.7l21.75,29.32V374.09h8v47.39Z"/><path class="cls-1" d="M434.33,374.09v46.53h-7.91V374.09Z"/><path class="cls-1" d="M478.3,408.09l5.88,5q-9.24,8-18.89,8a24.58,24.58,0,0,1-17.64-7,23.06,23.06,0,0,1,0-33.57,24.53,24.53,0,0,1,17.64-7q9.66,0,18.89,8.08l-5.88,5q-6.65-5.69-13-5.69a16.68,16.68,0,0,0-12,4.79,16,16,0,0,0,0,23.21,16.71,16.71,0,0,0,12,4.77Q471.65,413.74,478.3,408.09Z"/><path class="cls-1" d="M515.91,420.62l-3.66-9.81H501.18l-3.7,9.81h-8.4l17.67-46.56,17.53,46.56Zm-6.46-17.08-2.77-7.25L504,403.54Z"/><path class="cls-1" d="M553.5,381.41H531.82v-7.32h35.1l-23.55,39.22h21.68v7.31H530Z"/><path class="cls-1" d="M581.27,374.09v46.53h-7.92V374.09Z"/><path class="cls-1" d="M629.5,380.49a23.06,23.06,0,0,1,0,33.63,25.74,25.74,0,0,1-35.29,0,23,23,0,0,1,0-33.63,25.77,25.77,0,0,1,35.29,0Zm-17.65.38a16.68,16.68,0,0,0-12,4.81,16,16,0,0,0,0,23.26,17.34,17.34,0,0,0,24,0,16,16,0,0,0,0-23.26A16.64,16.64,0,0,0,611.85,380.87Z"/><path class="cls-1" d="M672.18,421.48l-22.3-30v29.18H642V374.09h4.7l21.75,29.32V374.09h8v47.39Z"/><path class="cls-1" d="M710.39,374.09v7.32H691.2v12.26h19.19v7.38H691.2v12.26h19.19v7.31H683.28V374.09Z"/><path class="cls-1" d="M393.3,9.44V235.31H339V9.44Z"/><path class="cls-1" d="M513.36,9.44H560V61.81H513.36v173.5H458.61V61.81H412V9.44H513.36Z"/><path class="cls-1" d="M629.85,134.38Q607,122,597.23,112.24q-18.57-18.33-18.56-43.57t18.2-43.56Q615.08,6.78,641.51,6.78q26.18,0,43.81,17.61Q702,41.31,702,63.2V75.81l-50.7-.23q-2.64-11.89-4.76-14a6.86,6.86,0,0,0-5-2.15A8,8,0,0,0,635.8,62a9.51,9.51,0,0,0,.47,13.57q3.09,3.57,15.48,11.42,25.71,13.83,37.84,26,20.7,21.19,20.71,50,0,30-21.07,51.3t-51.76,21.31q-30.72,0-51.91-21.31t-21.18-60.82l54.28-14q0,32.61,5.72,38.22a18.17,18.17,0,0,0,13.09,5.59q7.13,0,13-5.59c3.88-3.74,5.83-8.61,5.83-14.65a18.48,18.48,0,0,0-6-13.81Q645.79,144.62,629.85,134.38Z"/><path class="cls-2" d="M304.42,36.62A36.89,36.89,0,1,0,267.8,73.77,36.89,36.89,0,0,0,304.42,36.62Z"/><path class="cls-2" d="M.82,9.11c0,162.54,132.23,294.78,294.77,294.78V247.14c-131.24,0-238-106.78-238-238Z"/><path class="cls-2" d="M109.65,9.11c0,102.53,83.41,185.94,185.94,185.94V138.3A129.34,129.34,0,0,1,166.4,9.11Z"/></g></g></svg>