<svg width="251" height="63" viewBox="0 0 251 63" fill="none" xmlns="http://www.w3.org/2000/svg">
<path d="M8.51509 25.5H1V1.06818H8.51509V25.5Z" fill="#0950BA"/>
<path d="M18.5352 25.5H12.5231V3.34091L14.5272 1.06818H17.0322L32.0624 15.8409V1.06818H38.0744V23.2273L36.5714 25.5H33.0644L18.5352 11.2955V25.5Z" fill="#0950BA"/>
<path d="M49.0966 25.5H42.5835V1.06818H67.1328L62.1227 7.31818H48.5956V10.7273H65.6298L61.6217 16.9773H49.0966V25.5Z" fill="#0950BA"/>
<path d="M74.1469 16.4091L77.1529 19.25H88.676V25.5H76.1509L71.6418 23.2273L68.6358 19.25L67.6338 15.8409V8.45455L69.1368 5.61364L72.1429 2.77273L76.6519 1.06818H89.6781L93.6861 2.77273L96.6921 5.61364L98.6962 8.45455L99.1972 15.8409L98.6962 19.25L95.1891 23.2273L89.6781 25.5V19.25L92.6841 16.4091V10.7273L89.6781 7.88636H77.1529L74.1469 10.7273V16.4091Z" fill="#0950BA"/>
<path d="M106.211 19.25L102.203 25.5H125.75L129.759 23.2273L131.262 20.3864V15.2727L130.26 13L126.252 10.7273H109.718L108.716 9.59091L109.217 7.31818H126.753L130.761 1.06818H108.716L102.704 7.31818V11.2955L107.714 15.8409H124.748V19.25H106.211Z" fill="#0950BA"/>
<path d="M155.811 25.5H135.27V1.63636H160.32L155.811 7.88636H141.783V10.7273H158.817L155.31 16.4091H141.783V19.25H160.32L155.811 25.5Z" fill="#0950BA"/>
<path d="M168.336 25.5H162.324L162.825 3.90909L164.829 0.5H166.833L182.364 15.2727V1.06818H188.376V22.6591L186.372 25.5H183.366L168.336 11.2955V25.5Z" fill="#0950BA"/>
<path d="M213.928 15.2727H198.396H197.394L193.887 13L192.384 10.1591V5.61364L194.388 3.34091L197.895 1.63636H219.94L216.433 7.88636H199.398L198.396 9.02273L198.897 10.7273H215.431L218.938 12.4318L220.441 14.7045V19.25L218.938 23.2273L215.431 25.5H191.382L195.891 19.25H213.928L214.93 16.9773L213.928 15.2727Z" fill="#0950BA"/>
<path d="M245.491 25.5H224.449V1.63636H249.499L245.491 7.88636H230.962V10.7273H248.497L244.99 16.4091H230.962V19.25H250L245.491 25.5Z" fill="#0950BA"/>
<path fill-rule="evenodd" clip-rule="evenodd" d="M164.543 0H167.033L181.864 14.1071V0.568182H188.876V22.8177L186.631 26H183.167L168.836 12.4559V26H161.812L162.328 3.76766L164.543 0ZM165.115 1L163.322 4.05054L162.836 25H167.836V10.135L183.565 25H186.113L187.876 22.5005V1.56818H182.864V16.4384L166.633 1H165.115ZM0.5 0.568182H9.01509V26H0.5V0.568182ZM1.5 1.56818V25H8.01509V1.56818H1.5ZM14.3014 0.568182H17.2368L31.5624 14.6484V0.568182H38.5744V23.3776L36.8402 26H32.8606L19.0352 12.4835V26H12.0231V3.15195L14.3014 0.568182ZM14.7529 1.56818L13.0231 3.52987V25H18.0352V10.1074L33.2682 25H36.3026L37.5744 23.0769V1.56818H32.5624V17.0334L16.8276 1.56818H14.7529ZM42.0835 0.568182H68.1744L62.3627 7.81818H49.0956V10.2273H66.5444L61.8951 17.4773H49.5966V26H42.0835V0.568182ZM43.0835 1.56818V25H48.5966V16.4773H61.3484L64.7151 11.2273H48.0956V6.81818H61.8827L66.0912 1.56818H43.0835ZM76.5606 0.568182H89.78L93.9643 2.34772L97.0719 5.28458L99.1855 8.28087L99.6997 15.8606L99.1693 19.4694L95.4873 23.6452L89.1781 26.247V19.0346L92.1841 16.1937V10.9427L89.4792 8.38636H77.3518L74.6469 10.9427V16.1937L77.3518 18.75H89.176V26H76.032L71.313 23.6215L68.1819 19.4786L67.1338 15.9129V8.33043L68.7334 5.3069L71.8723 2.34048L76.5606 0.568182ZM76.7433 1.56818L72.4134 3.20498L69.5402 5.92037L68.1338 8.57866V15.769L69.0898 19.0214L71.9707 22.8331L76.2698 25H88.176V19.75H76.954L73.6469 16.6245V10.5118L76.954 7.38636H89.8769L93.1841 10.5118V16.6245L90.1781 19.4654V24.753L94.891 22.8094L98.2231 19.0306L98.6947 15.8212L98.2068 8.62823L96.3124 5.94268L93.4079 3.19774L89.5762 1.56818H76.7433ZM108.503 0.568182H131.675L127.026 7.81818H109.619L109.259 9.45063L109.944 10.2273H126.383L130.65 12.6468L131.762 15.1674V20.5105L130.132 23.5902L125.882 26H101.289L105.938 18.75H124.248V16.3409H107.521L102.204 11.5169V7.11673L108.503 0.568182ZM108.929 1.56818L103.204 7.51963V11.074L107.907 15.3409H125.248V19.75H106.485L103.118 25H125.619L129.385 22.8644L130.762 20.2623V15.378L129.869 13.3533L126.12 11.2273H109.493L108.173 9.73118L108.816 6.81818H126.479L129.846 1.56818H108.929ZM223.949 1.06818H224.949V1.13636H250.414L245.764 8.38636H231.462V10.2273H249.393L245.269 16.9091H231.462V18.75H250.977L245.747 26H223.949V1.06818ZM224.949 2.13636V25H245.235L249.023 19.75H230.462V15.9091H244.711L247.601 11.2273H230.462V7.38636H245.218L248.584 2.13636H224.949ZM134.77 1.13636H161.297L156.067 8.38636H142.283V10.2273H159.713L155.589 16.9091H142.283V18.75H161.297L156.067 26H134.77V1.13636ZM135.77 2.13636V25H155.555L159.343 19.75H141.283V15.9091H155.031L157.921 11.2273H141.283V7.38636H155.555L159.343 2.13636H135.77ZM197.78 1.13636H220.794L216.725 8.38636H199.624L198.954 9.14646L199.272 10.2273H215.546L219.279 12.0419L220.941 14.5542V19.3413L219.347 23.5576L215.578 26H190.405L195.636 18.75H213.602L214.369 17.0099L213.641 15.7727H197.247L193.506 13.3488L191.884 10.2832V5.42468L194.08 2.93503L197.78 1.13636ZM198.01 2.13636L194.697 3.74678L192.884 5.8026V10.035L194.268 12.6512L197.542 14.7727H214.214L215.49 16.9447L214.254 19.75H196.147L192.36 25H215.283L218.528 22.897L219.941 19.1587V14.8549L218.596 12.8217L215.316 11.2273H198.523L197.839 8.899L199.173 7.38636H216.14L219.086 2.13636H198.01Z" fill="#0950BA"/>
<path d="M77.8552 47.3875C77.7636 47.5041 77.6719 47.5958 77.5802 47.6625C77.4969 47.7291 77.3719 47.7625 77.2052 47.7625C77.0469 47.7625 76.8927 47.7166 76.7427 47.625C76.5927 47.525 76.4136 47.4166 76.2052 47.3C75.9969 47.175 75.7469 47.0666 75.4552 46.975C75.1719 46.875 74.8177 46.825 74.3927 46.825C73.8511 46.825 73.3761 46.925 72.9677 47.125C72.5594 47.3166 72.2177 47.5958 71.9427 47.9625C71.6761 48.3291 71.4761 48.775 71.3427 49.3C71.2094 49.8166 71.1427 50.4041 71.1427 51.0625C71.1427 51.7458 71.2136 52.3541 71.3552 52.8875C71.5052 53.4208 71.7177 53.8708 71.9927 54.2375C72.2677 54.5958 72.6011 54.8708 72.9927 55.0625C73.3844 55.2458 73.8261 55.3375 74.3177 55.3375C74.8094 55.3375 75.2052 55.2791 75.5052 55.1625C75.8136 55.0375 76.0719 54.9041 76.2802 54.7625C76.4886 54.6125 76.6677 54.4791 76.8177 54.3625C76.9761 54.2375 77.1511 54.175 77.3427 54.175C77.5927 54.175 77.7802 54.2708 77.9052 54.4625L78.7927 55.5875C78.4511 55.9875 78.0802 56.325 77.6802 56.6C77.2802 56.8666 76.8636 57.0833 76.4302 57.25C76.0052 57.4083 75.5636 57.5208 75.1052 57.5875C74.6552 57.6541 74.2052 57.6875 73.7552 57.6875C72.9636 57.6875 72.2177 57.5416 71.5177 57.25C70.8177 56.95 70.2052 56.5166 69.6802 55.95C69.1552 55.3833 68.7386 54.6916 68.4302 53.875C68.1302 53.05 67.9802 52.1125 67.9802 51.0625C67.9802 50.1208 68.1136 49.25 68.3802 48.45C68.6552 47.6416 69.0552 46.9458 69.5802 46.3625C70.1052 45.7708 70.7552 45.3083 71.5302 44.975C72.3052 44.6416 73.1969 44.475 74.2052 44.475C75.1636 44.475 76.0011 44.6291 76.7177 44.9375C77.4427 45.2458 78.0927 45.6875 78.6677 46.2625L77.8552 47.3875Z" fill="black"/>
<path d="M85.771 44.475C86.721 44.475 87.5835 44.6291 88.3585 44.9375C89.1419 45.2458 89.8085 45.6833 90.3585 46.25C90.9169 46.8166 91.346 47.5083 91.646 48.325C91.946 49.1416 92.096 50.0541 92.096 51.0625C92.096 52.0791 91.946 52.9958 91.646 53.8125C91.346 54.6291 90.9169 55.325 90.3585 55.9C89.8085 56.475 89.1419 56.9166 88.3585 57.225C87.5835 57.5333 86.721 57.6875 85.771 57.6875C84.8127 57.6875 83.9419 57.5333 83.1585 57.225C82.3752 56.9166 81.7044 56.475 81.146 55.9C80.596 55.325 80.1669 54.6291 79.8585 53.8125C79.5585 52.9958 79.4085 52.0791 79.4085 51.0625C79.4085 50.0541 79.5585 49.1416 79.8585 48.325C80.1669 47.5083 80.596 46.8166 81.146 46.25C81.7044 45.6833 82.3752 45.2458 83.1585 44.9375C83.9419 44.6291 84.8127 44.475 85.771 44.475ZM85.771 55.3125C86.8377 55.3125 87.6252 54.9541 88.1335 54.2375C88.6502 53.5208 88.9085 52.4708 88.9085 51.0875C88.9085 49.7041 88.6502 48.65 88.1335 47.925C87.6252 47.2 86.8377 46.8375 85.771 46.8375C84.6877 46.8375 83.8835 47.2041 83.3585 47.9375C82.8419 48.6625 82.5835 49.7125 82.5835 51.0875C82.5835 52.4625 82.8419 53.5125 83.3585 54.2375C83.8835 54.9541 84.6877 55.3125 85.771 55.3125Z" fill="black"/>
<path d="M96.9265 46.25C97.1848 45.9916 97.4557 45.7541 97.739 45.5375C98.0307 45.3125 98.3348 45.125 98.6515 44.975C98.9765 44.8166 99.3223 44.6958 99.689 44.6125C100.056 44.5208 100.456 44.475 100.889 44.475C101.589 44.475 102.21 44.5958 102.752 44.8375C103.293 45.0708 103.743 45.4041 104.102 45.8375C104.468 46.2625 104.743 46.775 104.927 47.375C105.118 47.9666 105.214 48.6208 105.214 49.3375V57.5H102.127V49.3375C102.127 48.5541 101.947 47.95 101.589 47.525C101.231 47.0916 100.685 46.875 99.9515 46.875C99.4182 46.875 98.9182 46.9958 98.4515 47.2375C97.9848 47.4791 97.5432 47.8083 97.1265 48.225V57.5H94.039V44.675H95.9265C96.3265 44.675 96.589 44.8625 96.714 45.2375L96.9265 46.25Z" fill="black"/>
<path d="M115.563 47.175C115.48 47.3083 115.392 47.4041 115.3 47.4625C115.209 47.5125 115.092 47.5375 114.95 47.5375C114.8 47.5375 114.638 47.4958 114.463 47.4125C114.296 47.3291 114.1 47.2375 113.875 47.1375C113.65 47.0291 113.392 46.9333 113.1 46.85C112.817 46.7666 112.48 46.725 112.088 46.725C111.48 46.725 111 46.8541 110.65 47.1125C110.309 47.3708 110.138 47.7083 110.138 48.125C110.138 48.4 110.225 48.6333 110.4 48.825C110.584 49.0083 110.821 49.1708 111.113 49.3125C111.413 49.4541 111.75 49.5833 112.125 49.7C112.5 49.8083 112.88 49.9291 113.263 50.0625C113.655 50.1958 114.038 50.35 114.413 50.525C114.788 50.6916 115.121 50.9083 115.413 51.175C115.713 51.4333 115.95 51.7458 116.125 52.1125C116.309 52.4791 116.4 52.9208 116.4 53.4375C116.4 54.0541 116.288 54.625 116.063 55.15C115.846 55.6666 115.521 56.1166 115.088 56.5C114.655 56.875 114.117 57.1708 113.475 57.3875C112.842 57.5958 112.109 57.7 111.275 57.7C110.834 57.7 110.4 57.6583 109.975 57.575C109.559 57.5 109.155 57.3916 108.763 57.25C108.38 57.1083 108.021 56.9416 107.688 56.75C107.363 56.5583 107.075 56.35 106.825 56.125L107.538 54.95C107.63 54.8083 107.738 54.7 107.863 54.625C107.988 54.55 108.146 54.5125 108.338 54.5125C108.53 54.5125 108.709 54.5666 108.875 54.675C109.05 54.7833 109.25 54.9 109.475 55.025C109.7 55.15 109.963 55.2666 110.263 55.375C110.571 55.4833 110.959 55.5375 111.425 55.5375C111.792 55.5375 112.105 55.4958 112.363 55.4125C112.63 55.3208 112.846 55.2041 113.013 55.0625C113.188 54.9208 113.313 54.7583 113.388 54.575C113.471 54.3833 113.513 54.1875 113.513 53.9875C113.513 53.6875 113.421 53.4416 113.238 53.25C113.063 53.0583 112.825 52.8916 112.525 52.75C112.234 52.6083 111.896 52.4833 111.513 52.375C111.138 52.2583 110.75 52.1333 110.35 52C109.959 51.8666 109.571 51.7125 109.188 51.5375C108.813 51.3541 108.475 51.125 108.175 50.85C107.884 50.575 107.646 50.2375 107.463 49.8375C107.288 49.4375 107.2 48.9541 107.2 48.3875C107.2 47.8625 107.305 47.3625 107.513 46.8875C107.721 46.4125 108.025 46 108.425 45.65C108.834 45.2916 109.338 45.0083 109.938 44.8C110.546 44.5833 111.246 44.475 112.038 44.475C112.921 44.475 113.725 44.6208 114.45 44.9125C115.175 45.2041 115.78 45.5875 116.263 46.0625L115.563 47.175Z" fill="black"/>
<path d="M129.362 44.675V57.5H127.474C127.066 57.5 126.807 57.3125 126.699 56.9375L126.487 55.9125C125.962 56.4458 125.383 56.8791 124.749 57.2125C124.116 57.5375 123.37 57.7 122.512 57.7C121.812 57.7 121.191 57.5833 120.649 57.35C120.116 57.1083 119.666 56.7708 119.299 56.3375C118.932 55.9041 118.653 55.3916 118.462 54.8C118.278 54.2 118.187 53.5416 118.187 52.825V44.675H121.274V52.825C121.274 53.6083 121.453 54.2166 121.812 54.65C122.178 55.075 122.724 55.2875 123.449 55.2875C123.982 55.2875 124.482 55.1708 124.949 54.9375C125.416 54.6958 125.858 54.3666 126.274 53.95V44.675H129.362Z" fill="black"/>
<path d="M135.135 38.925V57.5H132.048V38.925H135.135Z" fill="black"/>
<path d="M150.737 57.5H147.649V46.9875H141.699V53.9375C141.699 54.3375 141.795 54.65 141.987 54.875C142.187 55.1 142.458 55.2125 142.799 55.2125C142.991 55.2125 143.149 55.1916 143.274 55.15C143.408 55.1 143.52 55.05 143.612 55C143.712 54.95 143.799 54.9041 143.874 54.8625C143.949 54.8125 144.024 54.7875 144.099 54.7875C144.191 54.7875 144.266 54.8125 144.324 54.8625C144.383 54.9041 144.445 54.9708 144.512 55.0625L145.437 56.5625C144.987 56.9375 144.47 57.2208 143.887 57.4125C143.303 57.6041 142.699 57.7 142.074 57.7C140.958 57.7 140.099 57.3875 139.499 56.7625C138.908 56.1291 138.612 55.2583 138.612 54.15V46.9875H137.299C137.133 46.9875 136.991 46.9333 136.874 46.825C136.757 46.7166 136.699 46.5541 136.699 46.3375V45.1125L138.762 44.7625L139.412 41.275C139.453 41.1083 139.533 40.9791 139.649 40.8875C139.766 40.7958 139.916 40.75 140.099 40.75H141.699V44.7875H150.737V57.5ZM151.274 40.8875C151.274 41.1541 151.22 41.4083 151.112 41.65C151.003 41.8833 150.858 42.0875 150.674 42.2625C150.499 42.4375 150.287 42.5791 150.037 42.6875C149.795 42.7875 149.537 42.8375 149.262 42.8375C148.995 42.8375 148.745 42.7875 148.512 42.6875C148.278 42.5791 148.074 42.4375 147.899 42.2625C147.724 42.0875 147.582 41.8833 147.474 41.65C147.374 41.4083 147.324 41.1541 147.324 40.8875C147.324 40.6125 147.374 40.3583 147.474 40.125C147.582 39.8833 147.724 39.675 147.899 39.5C148.074 39.3166 148.278 39.175 148.512 39.075C148.745 38.9666 148.995 38.9125 149.262 38.9125C149.537 38.9125 149.795 38.9666 150.037 39.075C150.287 39.175 150.499 39.3166 150.674 39.5C150.858 39.675 151.003 39.8833 151.112 40.125C151.22 40.3583 151.274 40.6125 151.274 40.8875Z" fill="black"/>
<path d="M156.363 46.25C156.621 45.9916 156.892 45.7541 157.176 45.5375C157.467 45.3125 157.771 45.125 158.088 44.975C158.413 44.8166 158.759 44.6958 159.126 44.6125C159.492 44.5208 159.892 44.475 160.326 44.475C161.026 44.475 161.646 44.5958 162.188 44.8375C162.73 45.0708 163.18 45.4041 163.538 45.8375C163.905 46.2625 164.18 46.775 164.363 47.375C164.555 47.9666 164.651 48.6208 164.651 49.3375V57.5H161.563V49.3375C161.563 48.5541 161.384 47.95 161.026 47.525C160.667 47.0916 160.121 46.875 159.388 46.875C158.855 46.875 158.355 46.9958 157.888 47.2375C157.421 47.4791 156.98 47.8083 156.563 48.225V57.5H153.476V44.675H155.363C155.763 44.675 156.026 44.8625 156.151 45.2375L156.363 46.25Z" fill="black"/>
<path d="M171.862 50.775C172.245 50.775 172.579 50.725 172.862 50.625C173.145 50.5166 173.379 50.3708 173.562 50.1875C173.754 50.0041 173.895 49.7833 173.987 49.525C174.087 49.2666 174.137 48.9833 174.137 48.675C174.137 48.0416 173.945 47.5416 173.562 47.175C173.187 46.8 172.62 46.6125 171.862 46.6125C171.104 46.6125 170.533 46.8 170.149 47.175C169.774 47.5416 169.587 48.0416 169.587 48.675C169.587 48.975 169.633 49.2541 169.724 49.5125C169.824 49.7708 169.966 49.9958 170.149 50.1875C170.341 50.3708 170.579 50.5166 170.862 50.625C171.154 50.725 171.487 50.775 171.862 50.775ZM175.349 58.075C175.349 57.825 175.274 57.6208 175.124 57.4625C174.974 57.3041 174.77 57.1833 174.512 57.1C174.254 57.0083 173.949 56.9416 173.599 56.9C173.258 56.8583 172.891 56.8291 172.499 56.8125C172.116 56.7875 171.716 56.7666 171.299 56.75C170.891 56.7333 170.491 56.7 170.099 56.65C169.758 56.8416 169.479 57.0666 169.262 57.325C169.054 57.5833 168.949 57.8833 168.949 58.225C168.949 58.45 169.004 58.6583 169.112 58.85C169.229 59.05 169.408 59.2208 169.649 59.3625C169.899 59.5041 170.22 59.6125 170.612 59.6875C171.004 59.7708 171.483 59.8125 172.049 59.8125C172.624 59.8125 173.12 59.7666 173.537 59.675C173.954 59.5916 174.295 59.4708 174.562 59.3125C174.837 59.1625 175.037 58.9791 175.162 58.7625C175.287 58.5541 175.349 58.325 175.349 58.075ZM178.424 45.1125V46.2625C178.424 46.6291 178.204 46.8541 177.762 46.9375L176.612 47.15C176.787 47.5916 176.874 48.075 176.874 48.6C176.874 49.2333 176.745 49.8083 176.487 50.325C176.237 50.8333 175.887 51.2666 175.437 51.625C174.987 51.9833 174.454 52.2625 173.837 52.4625C173.229 52.6541 172.57 52.75 171.862 52.75C171.612 52.75 171.37 52.7375 171.137 52.7125C170.904 52.6875 170.674 52.6541 170.449 52.6125C170.049 52.8541 169.849 53.125 169.849 53.425C169.849 53.6833 169.966 53.875 170.199 54C170.441 54.1166 170.758 54.2 171.149 54.25C171.541 54.3 171.987 54.3333 172.487 54.35C172.987 54.3583 173.499 54.3833 174.024 54.425C174.549 54.4666 175.062 54.5416 175.562 54.65C176.062 54.75 176.508 54.9125 176.899 55.1375C177.291 55.3625 177.604 55.6708 177.837 56.0625C178.079 56.4458 178.199 56.9416 178.199 57.55C178.199 58.1166 178.058 58.6666 177.774 59.2C177.499 59.7333 177.095 60.2083 176.562 60.625C176.037 61.0416 175.387 61.375 174.612 61.625C173.845 61.8833 172.97 62.0125 171.987 62.0125C171.02 62.0125 170.179 61.9166 169.462 61.725C168.745 61.5416 168.149 61.2916 167.674 60.975C167.199 60.6666 166.845 60.3083 166.612 59.9C166.379 59.4916 166.262 59.0666 166.262 58.625C166.262 58.025 166.441 57.525 166.799 57.125C167.166 56.7166 167.666 56.3916 168.299 56.15C167.958 55.975 167.687 55.7416 167.487 55.45C167.287 55.1583 167.187 54.775 167.187 54.3C167.187 54.1083 167.22 53.9125 167.287 53.7125C167.362 53.5041 167.466 53.3 167.599 53.1C167.741 52.9 167.916 52.7125 168.124 52.5375C168.333 52.3541 168.579 52.1916 168.862 52.05C168.212 51.7 167.699 51.2333 167.324 50.65C166.958 50.0666 166.774 49.3833 166.774 48.6C166.774 47.9666 166.899 47.3958 167.149 46.8875C167.408 46.3708 167.762 45.9333 168.212 45.575C168.67 45.2083 169.208 44.9291 169.824 44.7375C170.449 44.5458 171.129 44.45 171.862 44.45C172.412 44.45 172.929 44.5083 173.412 44.625C173.895 44.7333 174.337 44.8958 174.737 45.1125H178.424Z" fill="black"/>
<path fill-rule="evenodd" clip-rule="evenodd" d="M247 32.5H2V31.5H247V32.5Z" fill="black"/>
</svg>
