<svg width="135" height="39" viewBox="0 0 135 39" fill="none" xmlns="http://www.w3.org/2000/svg">
<path d="M40.8132 39H36.5625V20.7987H40.6007L40.8132 22.6648V22.827H40.8664C41.1675 22.0878 41.5925 21.5469 42.1416 21.2043C42.7084 20.8437 43.5231 20.6634 44.5858 20.6634C46.3038 20.6634 47.5613 21.1773 48.3583 22.205C49.173 23.2147 49.5893 24.7472 49.607 26.8027C49.6424 28.6237 49.4564 30.0841 49.0491 31.184C48.6594 32.2658 48.0484 33.0411 47.2159 33.5098C46.3835 33.9786 45.3208 34.213 44.0279 34.213C43.3548 34.213 42.7438 34.1499 42.1947 34.0237C41.6634 33.8975 41.2206 33.7442 40.8664 33.5639L40.8132 33.591V39ZM43.2043 24.3416C42.4958 24.3416 41.9202 24.5669 41.4774 25.0177C41.0346 25.4504 40.8132 26.1987 40.8132 27.2624V30.1022C41.4686 30.3726 42.239 30.5078 43.1246 30.5078C43.957 30.5078 44.5504 30.3095 44.9046 29.9128C45.2765 29.4982 45.4625 28.6778 45.4625 27.4517C45.4625 26.388 45.3208 25.6037 45.0374 25.0988C44.754 24.594 44.143 24.3416 43.2043 24.3416Z" fill="white"/>
<path d="M56.1205 33.9696H51.8697V20.7987H55.3235L55.6688 23.5032H55.7485C55.9079 22.4935 56.2887 21.7723 56.8909 21.3396C57.4931 20.8888 58.3875 20.6634 59.5742 20.6634C60.0524 20.6634 60.4863 20.6905 60.876 20.7446C61.2657 20.7806 61.5933 20.8167 61.859 20.8527V25.0718L61.8059 25.1259C61.5225 25.0537 61.1948 24.9906 60.8229 24.9365C60.4686 24.8825 60.0613 24.8554 59.6008 24.8554C58.9455 24.8554 58.3521 24.9636 57.8208 25.18C57.3071 25.3963 56.8998 25.82 56.5987 26.4511C56.3153 27.0641 56.1736 27.9836 56.1736 29.2097L56.1205 33.9696Z" fill="white"/>
<path d="M75.1237 33.5369C74.6278 33.7172 73.937 33.8795 73.0514 34.0237C72.1836 34.1499 71.1475 34.213 69.9431 34.213C68.4199 34.213 67.1181 34.0147 66.0377 33.618C64.975 33.2033 64.1692 32.5092 63.6201 31.5355C63.071 30.5439 62.7965 29.1736 62.7965 27.4247C62.7965 25.0447 63.3279 23.3229 64.3905 22.2591C65.4709 21.1953 67.1358 20.6634 69.3852 20.6634C70.9969 20.6634 72.2633 20.8978 73.1843 21.3666C74.123 21.8354 74.7872 22.5025 75.1768 23.3679C75.5842 24.2153 75.7878 25.225 75.7878 26.397C75.7878 26.7396 75.7701 27.1092 75.7347 27.5058C75.717 27.9025 75.6727 28.2901 75.6019 28.6688L75.4956 28.7769H66.755C66.879 29.5703 67.2421 30.0931 67.8443 30.3456C68.4642 30.598 69.4649 30.7242 70.8464 30.7242C71.7674 30.7242 72.5289 30.7062 73.1311 30.6701C73.751 30.616 74.3798 30.5439 75.0174 30.4537L75.1237 30.5349V33.5369ZM72.095 25.9372C72.095 25.5045 72.0242 25.1349 71.8825 24.8284C71.7585 24.5038 71.5017 24.2604 71.112 24.0982C70.7224 23.9179 70.1468 23.8277 69.3852 23.8277C68.2694 23.8277 67.5343 24.026 67.1801 24.4227C66.8436 24.8013 66.6753 25.3062 66.6753 25.9372H72.095Z" fill="white"/>
<path d="M86.1241 33.9696L85.9647 32.0494H85.8585C85.5574 32.7706 85.1234 33.3115 84.5567 33.6721C84.0076 34.0327 83.2017 34.213 82.1391 34.213C80.421 34.213 79.1635 33.7082 78.3665 32.6985C77.5695 31.6708 77.1533 30.1292 77.1179 28.0738C77.1002 26.2347 77.2861 24.7743 77.6758 23.6925C78.0654 22.6107 78.6765 21.8354 79.5089 21.3666C80.3413 20.8978 81.404 20.6634 82.697 20.6634C83.37 20.6634 83.9811 20.7265 84.5301 20.8527C85.0792 20.9609 85.5219 21.1142 85.8585 21.3125L85.9116 21.2855V15.7683H90.1623V33.9696H86.1241ZM83.5205 30.5349C84.229 30.5349 84.8046 30.3095 85.2474 29.8588C85.6902 29.408 85.9116 28.6598 85.9116 27.614V24.7743C85.2563 24.5038 84.4858 24.3686 83.6003 24.3686C82.7678 24.3686 82.1656 24.5759 81.7937 24.9906C81.4395 25.3873 81.2623 26.1987 81.2623 27.4247C81.2623 28.4704 81.404 29.2547 81.6874 29.7776C81.9885 30.2825 82.5996 30.5349 83.5205 30.5349Z" fill="white"/>
<path d="M97.3666 15.9035C97.4197 16.5526 97.4463 17.0935 97.4463 17.5262C97.4463 17.7786 97.4374 18.0401 97.4197 18.3105C97.4197 18.5629 97.402 18.8514 97.3666 19.1759C96.9947 19.2481 96.6316 19.3022 96.2773 19.3382C95.9231 19.3743 95.5689 19.3923 95.2147 19.3923C94.8781 19.3923 94.5328 19.3743 94.1785 19.3382C93.842 19.3022 93.4966 19.2481 93.1424 19.1759C93.107 18.8694 93.0804 18.59 93.0627 18.3376C93.045 18.0671 93.0362 17.8057 93.0362 17.5532C93.0362 17.3189 93.045 17.0664 93.0627 16.796C93.0804 16.5255 93.107 16.228 93.1424 15.9035C93.4966 15.8133 93.8509 15.7593 94.2051 15.7412C94.577 15.7052 94.9401 15.6871 95.2944 15.6871C95.6309 15.6871 95.9674 15.7052 96.3039 15.7412C96.6581 15.7593 97.0124 15.8133 97.3666 15.9035ZM97.3666 33.9696H93.1159V20.7987H97.3666V33.9696Z" fill="white"/>
<path d="M110.377 30.1562V33.6721C109.934 33.8524 109.279 33.9876 108.411 34.0778C107.543 34.1679 106.622 34.213 105.648 34.213C104.249 34.213 103.08 34.0147 102.141 33.618C101.22 33.2214 100.529 32.5362 100.069 31.5626C99.6262 30.589 99.3959 29.2367 99.3782 27.5058C99.3782 25.7209 99.6173 24.3325 100.096 23.3409C100.591 22.3492 101.309 21.6551 102.247 21.2584C103.186 20.8618 104.311 20.6634 105.622 20.6634C106.401 20.6634 107.224 20.7175 108.092 20.8257C108.96 20.9339 109.669 21.0781 110.218 21.2584L110.244 24.8825L110.164 24.9365C109.633 24.8284 109.066 24.7472 108.464 24.6931C107.862 24.6391 107.269 24.612 106.684 24.612C105.498 24.612 104.674 24.8374 104.213 25.2881C103.753 25.7389 103.523 26.4961 103.523 27.5599C103.523 28.3713 103.62 28.9753 103.815 29.3719C104.01 29.7686 104.337 30.03 104.798 30.1562C105.258 30.2825 105.887 30.3456 106.684 30.3456C107.304 30.3456 107.897 30.3185 108.464 30.2644C109.031 30.2103 109.633 30.1472 110.271 30.0751L110.377 30.1562Z" fill="white"/>
<path d="M113.027 30.021V24.3416H111.433V20.8257H113.426L114.223 17.6073H117.278V20.8257H120.174V24.3416H117.278V29.0744C117.278 29.5793 117.34 29.9309 117.464 30.1292C117.588 30.3095 117.871 30.3997 118.314 30.3997C118.597 30.3997 118.898 30.3906 119.217 30.3726C119.536 30.3365 119.855 30.3005 120.174 30.2644L120.253 30.3185V33.8344C119.403 34.0868 118.279 34.213 116.879 34.213C115.48 34.213 114.488 33.8885 113.904 33.2394C113.319 32.5903 113.027 31.5175 113.027 30.021Z" fill="white"/>
<path d="M121.716 27.4788C121.716 25.0628 122.221 23.3229 123.231 22.2591C124.24 21.1953 125.949 20.6634 128.358 20.6634C129.97 20.6634 131.263 20.8978 132.237 21.3666C133.211 21.8354 133.911 22.5746 134.336 23.5843C134.779 24.5759 135 25.8741 135 27.4788C135 29.0654 134.779 30.3546 134.336 31.3462C133.911 32.3379 133.211 33.0681 132.237 33.5369C131.263 33.9876 129.97 34.213 128.358 34.213C125.949 34.213 124.24 33.6901 123.231 32.6444C122.221 31.5806 121.716 29.8588 121.716 27.4788ZM128.358 30.5078C129.385 30.5078 130.076 30.2825 130.43 29.8317C130.802 29.3629 130.988 28.5516 130.988 27.3977C130.988 26.2978 130.802 25.5135 130.43 25.0447C130.076 24.5579 129.385 24.3145 128.358 24.3145C127.366 24.3145 126.676 24.5579 126.286 25.0447C125.914 25.5135 125.728 26.2978 125.728 27.3977C125.728 28.5516 125.914 29.3629 126.286 29.8317C126.676 30.2825 127.366 30.5078 128.358 30.5078Z" fill="white"/>
<path d="M12.3384 1.24637L17.465 1.23942L17.5263 33.8078L12.3997 33.8148L12.3384 1.24637Z" fill="white"/>
<path d="M19.603 15.0795L24.7296 15.0726L24.7648 33.7646L19.6382 33.7716L19.603 15.0795Z" fill="white"/>
<path d="M26.8644 24.9362L31.9909 24.9293L32.0075 33.7633L26.881 33.7702L26.8644 24.9362Z" fill="white"/>
<path d="M5.25858 20.3684C4.03287 18.1308 3.69457 15.6165 4.29436 13.2021C4.89415 10.7877 6.39974 8.60312 8.58565 6.97551C10.7716 5.3479 13.5201 4.36487 16.4198 4.17364C19.3194 3.98241 22.214 4.59328 24.6702 5.91475C27.1263 7.23622 29.0117 9.19717 30.0441 11.5039C31.0764 13.8107 31.2002 16.3392 30.3968 18.7106C29.5934 21.082 27.9061 23.1689 25.5875 24.6585C23.269 26.1482 20.444 26.9606 17.5357 26.9739L17.4989 21.2108C18.9391 21.2041 20.3381 20.8018 21.4863 20.0641C22.6345 19.3264 23.4701 18.293 23.868 17.1186C24.2658 15.9442 24.2045 14.6921 23.6933 13.5497C23.182 12.4073 22.2483 11.4362 21.032 10.7818C19.8157 10.1274 18.3822 9.82487 16.9462 9.91957C15.5103 10.0143 14.1491 10.5011 13.0666 11.3071C11.9841 12.1131 11.2385 13.195 10.9415 14.3907C10.6445 15.5863 10.812 16.8315 11.419 17.9396L5.25858 20.3684Z" fill="#0950BA"/>
</svg>
