<svg width="205" height="122" viewBox="0 0 205 122" fill="none" xmlns="http://www.w3.org/2000/svg">
<path d="M109.316 34.5562C115.744 48.7314 116.762 64.9929 112.157 79.9452C107.551 94.8974 97.6797 107.384 84.6025 114.799C71.5254 122.213 56.2539 123.982 41.9768 119.735C27.6998 115.488 15.5211 105.555 7.98357 92.0089C0.446089 78.4628 -1.86737 62.3513 1.52626 47.0387C4.9199 31.7261 13.7583 18.3963 26.1958 9.83244C38.6334 1.26864 53.7086 -1.86699 68.2736 1.0803C82.8385 4.02759 95.7673 12.8299 104.36 25.6494L67.9289 53.1326C66.0166 50.2795 63.1392 48.3205 59.8977 47.6646C56.6562 47.0087 53.3011 47.7065 50.5331 49.6124C47.7651 51.5183 45.7981 54.485 45.0428 57.8929C44.2875 61.3007 44.8024 64.8864 46.4799 67.9012C48.1574 70.9159 50.8678 73.1266 54.0452 74.0718C57.2227 75.0169 60.6214 74.6233 63.5318 72.9732C66.4422 71.3231 68.6392 68.544 69.6641 65.2163C70.6889 61.8886 70.4625 58.2696 69.0319 55.1148L109.316 34.5562Z" fill="#D9D9D9"/>
<rect x="130" y="50" width="22" height="62" fill="#D9D9D9"/>
<rect x="157" y="68" width="21" height="44" fill="#D9D9D9"/>
<rect x="184" y="81" width="21" height="31" fill="#D9D9D9"/>
</svg>
